<?xml version="1.0" encoding="utf-8"?>
<!-- Generator: Adobe Illustrator 15.0.0, SVG Export Plug-In . SVG Version: 6.00 Build 0)  -->
<!DOCTYPE svg PUBLIC "-//W3C//DTD SVG 1.1//EN" "http://www.w3.org/Graphics/SVG/1.1/DTD/svg11.dtd">
<svg version="1.1" id="Layer_1" xmlns="http://www.w3.org/2000/svg" xmlns:xlink="http://www.w3.org/1999/xlink" x="0px" y="0px"
	 width="112px" height="29px" viewBox="0 0 112 29" enable-background="new 0 0 112 29" xml:space="preserve">
<path fill="#754FFE" d="M24.593-28c1.574,2.006,0.844,5.845,0.122,7.684c0.007,0.002,0.013,0.004,0.02,0.007l-0.015,0l-1.752-0.117
	c0-0.003,0-0.007,0-0.009c0.341-3.966-0.051-5.554-0.434-5.823c-4.583,3.313-8.677,2.26-9.942,1.935
	c-0.344-0.089-0.479-0.124-0.357-0.001c0.372,0.372,1.219,0.818,1.822,1.137l0,0h0c0.137,0.072,0.261,0.138,0.364,0.194
	c-4.975,0.058-6.976-2.338-7.563-3.042c-0.06-0.072-0.105-0.126-0.138-0.158c-0.287-0.287-1.901-1.268-2.408,0.602
	c-0.491,1.811-0.18,3.936-0.016,5.057c0.014,0.097,0.016,0.099,0.016,0.131l-1.616,0.095H2.691c-2.148-4.97-0.534-7.755,0.923-8.8
	c0-2.44,2.979-4.817,6.75-3.961c4.832,1.377,6.301,0.921,8.03,0.384c0.698-0.217,1.438-0.447,2.459-0.574
	c4.687-0.586,6.264,2.493,6.465,4.088C26.533-29.628,25.174-28.602,24.593-28z M12.656-31.746c-1.215-0.423-4.345-0.87-5.99,0.824
	c-0.364,0.375-0.792,1.078-0.792,1.078s-0.729,1.331-1.299,0.76c-0.571-0.57,0.76-2.282,1.806-2.789
	C7.427-32.38,10.026-33.268,12.656-31.746z"/>
<path fill="none" stroke="#754FFE" stroke-width="1.2676" d="M10.397-19.833H3.425c-0.875,0-1.584,0.71-1.584,1.585v3.232
	c0,0.875,0.709,1.585,1.584,1.585h6.972c0.875,0,1.584-0.71,1.584-1.585v-3.232C11.981-19.124,11.272-19.833,10.397-19.833z"/>
<path fill="#754FFE" stroke="#754FFE" stroke-width="0.0634" d="M1.143-18.724H0.699c-0.192,0-0.349,0.156-0.349,0.349v1.015
	c0,0.191,0.156,0.348,0.349,0.348h0.444c0.192,0,0.348-0.156,0.348-0.348v-1.015C1.491-18.568,1.335-18.724,1.143-18.724z"/>
<path fill="none" stroke="#754FFE" stroke-width="1.2676" d="M17.051-19.833h6.972c0.875,0,1.584,0.71,1.584,1.585v3.232
	c0,0.875-0.709,1.585-1.584,1.585h-6.972c-0.875,0-1.584-0.71-1.584-1.585v-3.232C15.467-19.124,16.176-19.833,17.051-19.833z"/>
<path fill="#754FFE" stroke="#754FFE" stroke-width="0.0634" d="M26.305-18.724h0.443c0.192,0,0.349,0.156,0.349,0.349v1.015
	c0,0.191-0.156,0.348-0.349,0.348h-0.443c-0.193,0-0.349-0.156-0.349-0.348v-1.015C25.957-18.568,26.112-18.724,26.305-18.724z"/>
<path fill="#754FFE" stroke="#754FFE" stroke-width="0.0634" d="M12.614-17.773h2.218c0.192,0,0.349,0.156,0.349,0.348v1.015
	c0,0.192-0.156,0.349-0.349,0.349h-2.218c-0.192,0-0.349-0.156-0.349-0.349v-1.015C12.266-17.617,12.422-17.773,12.614-17.773z"/>
<path fill="#754FFE" d="M10.252-16.94c0,0.315-0.17,0.57-0.38,0.57s-0.38-0.255-0.38-0.57s0.17-0.57,0.38-0.57
	S10.252-17.255,10.252-16.94z"/>
<path fill="#754FFE" d="M17.288-16.94c0,0.315,0.17,0.57,0.38,0.57s0.38-0.255,0.38-0.57s-0.17-0.57-0.38-0.57
	S17.288-17.255,17.288-16.94z"/>
<path fill="#754FFE" d="M14.595-13.232c-0.634,0.507-1.49,0.254-1.711,0c0.063,0.316,0.304,0.761,0.887,0.761
	S14.563-12.978,14.595-13.232z"/>
<path fill="#754FFE" d="M12.45-10.922c0.026-0.12,0.145-0.195,0.264-0.169l2.239,0.492c0.12,0.027,0.195,0.146,0.169,0.266
	c-0.026,0.119-0.145,0.195-0.265,0.168l-2.239-0.492C12.5-10.685,12.424-10.802,12.45-10.922z"/>
<path fill="#754FFE" d="M13.739-5.658C9.328-5.607,6.091-9.672,5.024-11.71c-0.159-0.303-0.286-0.35-0.38-0.285
	c-0.152,0.101-0.042,0.306,0,0.412c0.532,1.242,1.257,2.291,1.553,2.661c-1.04,1.724-1.384,3.444-1.426,4.089
	c1.724-1.699,3.465-1.617,4.12-1.363c5.134,2.662,7.986,0.793,9.602,0c1.293-0.634,3.307,0.602,4.151,1.299
	c-0.101-1.571-0.951-3.295-1.362-3.961c0.666-0.887,1.204-1.965,1.489-2.504c0.228-0.431,0.158-0.602,0.095-0.633
	c-0.152-0.076-0.338,0.158-0.412,0.285C21.979-10.918,19.253-5.721,13.739-5.658z"/>
<path fill="#18113C" d="M45.592-22.473h4.375c-0.557-4.027-4.106-6.861-8.71-6.861c-5.379,0-9.525,3.878-9.525,10.48
	c0,6.444,3.878,10.44,9.615,10.44c5.141,0,8.81-3.251,8.81-8.61v-2.565h-8.521v3.242h4.375c-0.06,2.525-1.78,4.126-4.644,4.126
	c-3.231,0-5.27-2.417-5.27-6.672c0-4.236,2.118-6.632,5.23-6.632C43.543-25.525,45.045-24.382,45.592-22.473z"/>
<path fill="#18113C" d="M59.15-8.393c3.779,0,6.324-1.84,6.92-4.673l-3.918-0.26c-0.428,1.164-1.521,1.771-2.932,1.771
	c-2.119,0-3.461-1.401-3.461-3.679v-0.01h10.4v-1.164c0-5.19-3.143-7.755-7.18-7.755c-4.493,0-7.407,3.192-7.407,7.905
	C51.574-11.416,54.447-8.393,59.15-8.393z M55.76-17.869c0.089-1.741,1.412-3.133,3.291-3.133c1.84,0,3.111,1.313,3.123,3.133H55.76
	z"/>
<path fill="#18113C" d="M74.764-8.393c3.779,0,6.324-1.84,6.922-4.673l-3.918-0.26c-0.428,1.164-1.521,1.771-2.934,1.771
	c-2.117,0-3.461-1.401-3.461-3.679v-0.01h10.402v-1.164c0-5.19-3.143-7.755-7.18-7.755c-4.494,0-7.408,3.192-7.408,7.905
	C67.188-11.416,70.061-8.393,74.764-8.393z M71.373-17.869c0.09-1.741,1.412-3.133,3.291-3.133c1.84,0,3.113,1.313,3.123,3.133
	H71.373z"/>
<path fill="#18113C" d="M83.418-8.691h4.236v-4.854l1.143-1.302l4.166,6.155h4.963l-5.957-8.661l5.668-6.612h-4.861l-4.893,5.797
	h-0.229v-10.888h-4.236V-8.691z"/>
<path fill="#18113C" d="M111.303-19.609c-0.379-2.813-2.645-4.554-6.504-4.554c-3.906,0-6.482,1.81-6.473,4.753
	c-0.01,2.287,1.432,3.768,4.416,4.365l2.645,0.527c1.332,0.269,1.939,0.755,1.959,1.521c-0.02,0.905-1.006,1.552-2.486,1.552
	c-1.512,0-2.516-0.646-2.773-1.89l-4.166,0.219c0.396,2.924,2.883,4.724,6.93,4.724c3.957,0,6.791-2.019,6.801-5.031
	c-0.01-2.208-1.451-3.53-4.414-4.137l-2.766-0.557c-1.422-0.308-1.947-0.795-1.938-1.531c-0.01-0.915,1.023-1.511,2.336-1.511
	c1.471,0,2.346,0.805,2.555,1.79L111.303-19.609z"/>
<g>
	<g>
		<g>
			<path fill="#231F20" d="M24.272,22.655l-0.198-1.254l-0.661-0.1c-6.309-0.99-9.425,0.109-9.425,0.109h-1.543
				c0,0-3.117-1.1-9.425-0.109l-0.661,0.1l-0.198,1.254c0,0,0.727,0.166,0.727,1.719c0,0-0.165,3.994,4.559,3.863
				c0,0,2.674,0.363,4.029-1.09c0,0,0.496-0.203,1.09-2.545c0,0,0.005-0.01,0.014-0.027v0.027c0.034-0.07,0.066-0.131,0.1-0.188
				c0.116-0.166,0.31-0.385,0.537-0.398c0.229,0.014,0.422,0.232,0.538,0.398c0.033,0.057,0.066,0.117,0.1,0.188v-0.027
				c0.008,0.018,0.013,0.027,0.013,0.027c0.595,2.342,1.091,2.545,1.091,2.545c1.354,1.453,4.029,1.09,4.029,1.09
				c4.724,0.131,4.559-3.863,4.559-3.863C23.546,22.821,24.272,22.655,24.272,22.655z"/>
			<path fill="#FFFFFF" d="M11.228,25.228c0,1.066-2.082,1.932-2.996,1.932l-2.479-0.164c-0.55-0.299-1.307-0.727-1.678-1.611
				l-0.009-1.727c0-1.066,0.448-1.453,1.343-1.65h4.166c0.913,0,1.859,0.816,1.859,1.881L11.228,25.228z"/>
			<path fill="#FFFFFF" d="M15.327,25.403c0,1.066,2.082,1.932,2.996,1.932l2.479-0.164c0.551-0.299,1.307-0.725,1.678-1.611
				l0.009-1.727c0-1.066-0.447-1.453-1.343-1.65h-4.166c-0.913,0-1.859,0.816-1.859,1.883L15.327,25.403z"/>
		</g>
		<g>
			<path fill="#231F20" d="M10.277,24.345l-1.139,0.238l0.294-1.127c-0.094-0.025-0.192-0.037-0.294-0.037
				c-0.643,0-1.165,0.521-1.165,1.164s0.522,1.164,1.165,1.164c0.644,0,1.164-0.521,1.164-1.164
				C10.302,24.501,10.292,24.421,10.277,24.345z"/>
			<polygon fill="#231F20" points="10.277,24.343 10.276,24.343 10.277,24.345 			"/>
			<polygon fill="#231F20" points="9.433,23.456 9.432,23.456 9.433,23.456 			"/>
		</g>
		<circle fill="#FFFFFF" cx="9.138" cy="24.601" r="0.305"/>
		<g>
			<path fill="#231F20" d="M18.292,24.251l-1.138,0.24l0.294-1.125c-0.094-0.023-0.193-0.039-0.294-0.039
				c-0.644,0-1.165,0.521-1.165,1.164c0,0.645,0.521,1.164,1.165,1.164c0.643,0,1.163-0.52,1.163-1.164
				C18.316,24.409,18.308,24.329,18.292,24.251z"/>
			<polygon fill="#231F20" points="18.292,24.251 18.292,24.251 18.292,24.251 			"/>
			<polygon fill="#231F20" points="17.447,23.366 17.447,23.366 17.447,23.366 			"/>
		</g>
		<circle fill="#FFFFFF" cx="17.224" cy="24.491" r="0.305"/>
		<path fill="#231F20" d="M10.386,18.729c0,0-0.239-0.102-0.953-0.1c0,0-0.888-0.018-1.301,0.148L7.57,19.075
			c0,0-0.538,0.545,0.248,0.775c0,0,1.188-0.313,2.344-0.197c0.723,0.072,0.717-0.373,0.546-0.668
			C10.605,18.81,10.386,18.729,10.386,18.729z"/>
		<path fill="#29A7DF" d="M0.986,11.571l2.665,8.621h1.134l0.705-4.135l1.154,0.045c0,0,3.616-7.745,3.632-10.322
			C10.276,5.781,3.133,9.045,0.986,11.571z"/>
		<path fill="#E9208E" d="M21.958,0.463c-2.99,1.041-6.805,1.607-11.727,7.101l-4.035,8.521l2.244,0.088l13.519,0.838
			C21.958,17.011,17.664,5.153,21.958,0.463z"/>
		<path fill="#FFF100" d="M8.618,16.187l10.71-10.901c0,0,3.252-2.213,14.797-3.601c0,0-13.892,9.384-12.563,15.326L8.618,16.187z"
			/>
		<path fill="#231F20" d="M21.52,20.138l0.968,0.143c0,0,3.677-8.025,5.856-9.479c0,0-4.739,1.14-5.02,1.371l-9.284,4.36
			l7.831,0.545L21.52,20.138z"/>
		<path fill="#231F20" d="M15.864,18.729c0,0,0.239-0.102,0.953-0.1c0,0,0.888-0.018,1.301,0.148l0.561,0.297
			c0,0,0.539,0.545-0.248,0.775c0,0-1.188-0.313-2.344-0.197c-0.723,0.072-0.717-0.373-0.545-0.668
			C15.645,18.81,15.864,18.729,15.864,18.729z"/>
	</g>
	<path fill="#231F20" d="M4.278,16.741L4.26,15.603c0,0-0.172-0.734-0.172-1.362l6.903,1.468c0,0-5.572-0.621-6.184-0.574"/>
</g>
<g>
	<text transform="matrix(1 0 0 1 25.9263 26.0957)" fill="#EC297B" font-family="'Poppins'" font-size="25.7974">eGeek</text>
</g>
</svg>
